<?xml version="1.0" encoding="iso-8859-1"?>
<!-- Uploaded to: SVG Repo, www.svgrepo.com, Generator: SVG Repo Mixer Tools -->
<svg version="1.1" id="Layer_1" xmlns="http://www.w3.org/2000/svg" xmlns:xlink="http://www.w3.org/1999/xlink" 
	 viewBox="0 0 490 490" xml:space="preserve">
<g>
	<g id="XMLID_25_">
		<g>
			<rect x="390" y="300" style="fill:#AFB6BB;" width="50" height="50"/>
			<rect x="390" y="390" style="fill:#AFB6BB;" width="50" height="50"/>
			<rect x="305" y="390" style="fill:#AFB6BB;" width="50" height="50"/>
			<rect x="305" y="300" style="fill:#AFB6BB;" width="50" height="50"/>
			<rect x="220" y="300" style="fill:#AFB6BB;" width="50" height="50"/>
			<rect x="220" y="390" style="fill:#AFB6BB;" width="50" height="50"/>
			<rect x="50" y="390" style="fill:#AFB6BB;" width="50" height="50"/>
			<rect x="135" y="390" style="fill:#AFB6BB;" width="50" height="50"/>
			<rect x="135" y="300" style="fill:#AFB6BB;" width="50" height="50"/>
			<rect x="50" y="300" style="fill:#AFB6BB;" width="50" height="50"/>
			<rect x="50" y="210" style="fill:#AFB6BB;" width="50" height="50"/>
			<rect x="135" y="210" style="fill:#AFB6BB;" width="50" height="50"/>
			<rect x="220" y="210" style="fill:#AFB6BB;" width="50" height="50"/>
			<rect x="305" y="210" style="fill:#AFB6BB;" width="50" height="50"/>
			<rect x="390" y="210" style="fill:#AFB6BB;" width="50" height="50"/>
			<path style="fill:#FFFFFF;" d="M480,170v300c0,5.498-4.502,10-10,10H20c-5.498,0-10-4.502-10-10V170H480z M440,440v-50h-50v50
				H440z M440,350v-50h-50v50H440z M440,260v-50h-50v50H440z M355,440v-50h-50v50H355z M355,350v-50h-50v50H355z M355,260v-50h-50
				v50H355z M270,440v-50h-50v50H270z M270,350v-50h-50v50H270z M270,260v-50h-50v50H270z M185,440v-50h-50v50H185z M185,350v-50
				h-50v50H185z M185,260v-50h-50v50H185z M100,440v-50H50v50H100z M100,350v-50H50v50H100z M100,260v-50H50v50H100z"/>
			<path style="fill:#DD352E;" d="M220,80c0,5.498,4.502,10,10,10h30c5.498,0,10-4.502,10-10V50h80v30c0,5.498,4.502,10,10,10h30
				c5.498,0,10-4.502,10-10V50h70c5.498,0,10,4.502,10,10v110H10V60c0-5.498,4.502-10,10-10h70v30c0,5.498,4.502,10,10,10h30
				c5.498,0,10-4.502,10-10V50h80V80z"/>
			<path style="fill:#AFB6BB;" d="M140,50v30c0,5.498-4.502,10-10,10h-30c-5.498,0-10-4.502-10-10V50V20c0-5.498,4.502-10,10-10h30
				c5.498,0,10,4.502,10,10V50z"/>
			<path style="fill:#AFB6BB;" d="M270,50v30c0,5.498-4.502,10-10,10h-30c-5.498,0-10-4.502-10-10V50V20c0-5.498,4.502-10,10-10h30
				c5.498,0,10,4.502,10,10V50z"/>
			<path style="fill:#AFB6BB;" d="M400,50v30c0,5.498-4.502,10-10,10h-30c-5.498,0-10-4.502-10-10V50V20c0-5.498,4.502-10,10-10h30
				c5.498,0,10,4.502,10,10V50z"/>
		</g>
		<g>
			<path style="fill:#231F20;" d="M470,40h-60V20c0-11.028-8.972-20-20-20h-30c-11.028,0-20,8.972-20,20v20h-60V20
				c0-11.028-8.972-20-20-20h-30c-11.028,0-20,8.972-20,20v20h-60V20c0-11.028-8.972-20-20-20h-30C88.972,0,80,8.972,80,20v20H20
				C8.972,40,0,48.972,0,60v410c0,11.028,8.972,20,20,20h450c11.028,0,20-8.972,20-20V60C490,48.972,481.028,40,470,40z M360,20h30
				l0.001,60H360V20z M230,20h30l0.001,60H230V20z M100,20h30l0.001,60H100V20z M80,60v20c0,11.028,8.972,20,20,20h30
				c11.028,0,20-8.972,20-20V60h60v20c0,11.028,8.972,20,20,20h30c11.028,0,20-8.972,20-20V60h60v20c0,11.028,8.972,20,20,20h30
				c11.028,0,20-8.972,20-20V60h60v100h-20v-55h-20v55H60v-55H40v55H20V60H80z M20,470V180h450v290H20z"/>
			<rect x="230" y="120" style="fill:#231F20;" width="30" height="20"/>
			<rect x="280" y="120" style="fill:#231F20;" width="30" height="20"/>
			<rect x="330" y="120" style="fill:#231F20;" width="30" height="20"/>
			<rect x="180" y="120" style="fill:#231F20;" width="30" height="20"/>
			<rect x="130" y="120" style="fill:#231F20;" width="30" height="20"/>
			<path style="fill:#231F20;" d="M270,200h-50c-5.523,0-10,4.477-10,10v50c0,5.523,4.477,10,10,10h50c5.523,0,10-4.477,10-10v-50
				C280,204.477,275.523,200,270,200z M260,250h-30v-30h30V250z"/>
			<path style="fill:#231F20;" d="M355,200h-50c-5.523,0-10,4.477-10,10v50c0,5.523,4.477,10,10,10h50c5.523,0,10-4.477,10-10v-50
				C365,204.477,360.523,200,355,200z M345,250h-30v-30h30V250z"/>
			<path style="fill:#231F20;" d="M440,200h-50c-5.523,0-10,4.477-10,10v50c0,5.523,4.477,10,10,10h50c5.523,0,10-4.477,10-10v-50
				C450,204.477,445.523,200,440,200z M430,250h-30v-30h30V250z"/>
			<path style="fill:#231F20;" d="M100,200H50c-5.523,0-10,4.477-10,10v50c0,5.523,4.477,10,10,10h50c5.523,0,10-4.477,10-10v-50
				C110,204.477,105.523,200,100,200z M90,250H60v-30h30V250z"/>
			<path style="fill:#231F20;" d="M185,200h-50c-5.523,0-10,4.477-10,10v50c0,5.523,4.477,10,10,10h50c5.523,0,10-4.477,10-10v-50
				C195,204.477,190.523,200,185,200z M175,250h-30v-30h30V250z"/>
			<path style="fill:#231F20;" d="M270,290h-50c-5.523,0-10,4.477-10,10v50c0,5.523,4.477,10,10,10h50c5.523,0,10-4.477,10-10v-50
				C280,294.477,275.523,290,270,290z M260,340h-30v-30h30V340z"/>
			<path style="fill:#231F20;" d="M355,290h-50c-5.523,0-10,4.477-10,10v50c0,5.523,4.477,10,10,10h50c5.523,0,10-4.477,10-10v-50
				C365,294.477,360.523,290,355,290z M345,340h-30v-30h30V340z"/>
			<path style="fill:#231F20;" d="M440,290h-50c-5.523,0-10,4.477-10,10v50c0,5.523,4.477,10,10,10h50c5.523,0,10-4.477,10-10v-50
				C450,294.477,445.523,290,440,290z M430,340h-30v-30h30V340z"/>
			<path style="fill:#231F20;" d="M100,290H50c-5.523,0-10,4.477-10,10v50c0,5.523,4.477,10,10,10h50c5.523,0,10-4.477,10-10v-50
				C110,294.477,105.523,290,100,290z M90,340H60v-30h30V340z"/>
			<path style="fill:#231F20;" d="M185,290h-50c-5.523,0-10,4.477-10,10v50c0,5.523,4.477,10,10,10h50c5.523,0,10-4.477,10-10v-50
				C195,294.477,190.523,290,185,290z M175,340h-30v-30h30V340z"/>
			<path style="fill:#231F20;" d="M270,380h-50c-5.523,0-10,4.477-10,10v50c0,5.523,4.477,10,10,10h50c5.523,0,10-4.477,10-10v-50
				C280,384.477,275.523,380,270,380z M260,430h-30v-30h30V430z"/>
			<path style="fill:#231F20;" d="M355,380h-50c-5.523,0-10,4.477-10,10v50c0,5.523,4.477,10,10,10h50c5.523,0,10-4.477,10-10v-50
				C365,384.477,360.523,380,355,380z M345,430h-30v-30h30V430z"/>
			<path style="fill:#231F20;" d="M440,380h-50c-5.523,0-10,4.477-10,10v50c0,5.523,4.477,10,10,10h50c5.523,0,10-4.477,10-10v-50
				C450,384.477,445.523,380,440,380z M430,430h-30v-30h30V430z"/>
			<path style="fill:#231F20;" d="M100,380H50c-5.523,0-10,4.477-10,10v50c0,5.523,4.477,10,10,10h50c5.523,0,10-4.477,10-10v-50
				C110,384.477,105.523,380,100,380z M90,430H60v-30h30V430z"/>
			<path style="fill:#231F20;" d="M185,380h-50c-5.523,0-10,4.477-10,10v50c0,5.523,4.477,10,10,10h50c5.523,0,10-4.477,10-10v-50
				C195,384.477,190.523,380,185,380z M175,430h-30v-30h30V430z"/>
		</g>
	</g>
</g>
</svg>