<svg version="1.1" id="Layer_1" xmlns="http://www.w3.org/2000/svg" xmlns:xlink="http://www.w3.org/1999/xlink" x="0px" y="0px"
	 width="100%" viewBox="0 0 512 512" enable-background="new 0 0 512 512" xml:space="preserve">
<path fill="#475993" opacity="1.000000" stroke="none" 
	d="
M1.000003,459.000000 
	C1.000000,324.645782 1.000000,190.291550 1.344805,55.332176 
	C4.768549,47.622128 7.308061,40.218292 11.043675,33.477295 
	C17.889915,21.123102 28.153673,12.230286 41.332386,6.956831 
	C46.806316,4.766443 52.439331,2.973616 58.000000,1.000000 
	C190.354233,1.000000 322.708466,1.000000 455.696167,1.361421 
	C476.560669,5.562932 492.781799,15.622816 503.024323,33.680008 
	C507.312744,41.240314 509.731293,49.861267 513.000000,58.000000 
	C513.000000,190.354233 513.000000,322.708466 512.638550,455.696167 
	C510.179565,462.769684 508.762512,469.537720 505.848450,475.584320 
	C498.904572,489.992767 487.934601,500.654144 473.124695,506.970490 
	C467.569702,509.339661 461.716980,511.010681 456.000000,513.000000 
	C415.645782,513.000000 375.291534,513.000000 334.468658,512.531372 
	C334.000000,451.481262 334.000000,390.899872 334.000000,330.000031 
	C336.098267,330.000031 337.571411,330.000061 339.044556,330.000061 
	C357.373138,330.000000 375.711609,330.361420 394.026367,329.858154 
	C404.270294,329.576691 407.096771,327.401520 408.710480,318.257721 
	C410.388000,308.752167 410.906586,299.044769 412.014252,289.435089 
	C412.857208,282.121613 413.805786,274.819977 414.748688,267.518433 
	C416.131744,256.808777 414.581635,248.592117 400.289246,248.911804 
	C383.468719,249.288040 366.633301,249.000000 349.804352,249.000000 
	C344.684509,249.000000 339.564667,249.000000 334.000000,249.000000 
	C334.000000,237.398178 333.870453,226.276855 334.038605,215.160019 
	C334.188721,205.235809 334.035431,195.243439 335.172211,185.414871 
	C336.408386,174.726730 342.345703,166.829269 353.204193,164.038147 
	C359.321411,162.465759 365.689636,161.456604 371.993896,161.123672 
	C381.132690,160.641068 390.328888,160.696655 399.476471,161.087372 
	C408.205536,161.460205 413.098694,156.012650 413.031738,147.471375 
	C412.916870,132.809418 413.017517,118.145882 412.993591,103.483070 
	C412.978546,94.268616 408.686737,90.019249 399.405487,90.004982 
	C386.575531,89.985260 373.744049,90.120613 360.915894,89.967529 
	C346.886475,89.800117 333.101013,90.904556 319.522888,94.909126 
	C294.937469,102.160065 276.887634,117.236412 265.655853,140.016022 
	C258.126923,155.285736 255.092133,171.871521 255.017822,188.912415 
	C254.938629,207.074005 255.000000,225.236237 255.000000,243.398178 
	C255.000000,245.163757 255.000000,246.929321 255.000000,249.000000 
	C240.231354,249.000000 226.083557,249.332001 211.960190,248.887375 
	C201.960556,248.572571 195.604263,252.510361 195.955887,265.191559 
	C196.462112,283.447510 196.617889,301.712921 197.033447,319.971802 
	C197.144897,324.868103 200.457214,327.579163 204.682465,328.888947 
	C207.438461,329.743286 210.482452,329.932098 213.400925,329.953979 
	C227.163315,330.057251 240.926910,330.000000 255.000000,330.000000 
	C255.000000,391.418671 255.000000,452.209351 255.000000,513.000000 
	C189.645767,513.000000 124.291542,513.000000 58.303848,512.638550 
	C54.690502,511.525330 51.657501,510.937927 48.739365,509.995026 
	C29.469746,503.768738 15.271944,491.758911 7.021431,473.071716 
	C4.960920,468.404724 3.004347,463.691803 1.000003,459.000000 
z"/>
<path fill="#FFFFFF" opacity="1.000000" stroke="none" 
	d="
M255.468658,513.000000 
	C255.000000,452.209351 255.000000,391.418671 255.000000,330.000000 
	C240.926910,330.000000 227.163315,330.057251 213.400925,329.953979 
	C210.482452,329.932098 207.438461,329.743286 204.682465,328.888947 
	C200.457214,327.579163 197.144897,324.868103 197.033447,319.971802 
	C196.617889,301.712921 196.462112,283.447510 195.955887,265.191559 
	C195.604263,252.510361 201.960556,248.572571 211.960190,248.887375 
	C226.083557,249.332001 240.231354,249.000000 255.000000,249.000000 
	C255.000000,246.929321 255.000000,245.163757 255.000000,243.398178 
	C255.000000,225.236237 254.938629,207.074005 255.017822,188.912415 
	C255.092133,171.871521 258.126923,155.285736 265.655853,140.016022 
	C276.887634,117.236412 294.937469,102.160065 319.522888,94.909126 
	C333.101013,90.904556 346.886475,89.800117 360.915894,89.967529 
	C373.744049,90.120613 386.575531,89.985260 399.405487,90.004982 
	C408.686737,90.019249 412.978546,94.268616 412.993591,103.483070 
	C413.017517,118.145882 412.916870,132.809418 413.031738,147.471375 
	C413.098694,156.012650 408.205536,161.460205 399.476471,161.087372 
	C390.328888,160.696655 381.132690,160.641068 371.993896,161.123672 
	C365.689636,161.456604 359.321411,162.465759 353.204193,164.038147 
	C342.345703,166.829269 336.408386,174.726730 335.172211,185.414871 
	C334.035431,195.243439 334.188721,205.235809 334.038605,215.160019 
	C333.870453,226.276855 334.000000,237.398178 334.000000,249.000000 
	C339.564667,249.000000 344.684509,249.000000 349.804352,249.000000 
	C366.633301,249.000000 383.468719,249.288040 400.289246,248.911804 
	C414.581635,248.592117 416.131744,256.808777 414.748688,267.518433 
	C413.805786,274.819977 412.857208,282.121613 412.014252,289.435089 
	C410.906586,299.044769 410.388000,308.752167 408.710480,318.257721 
	C407.096771,327.401520 404.270294,329.576691 394.026367,329.858154 
	C375.711609,330.361420 357.373138,330.000000 339.044556,330.000061 
	C337.571411,330.000061 336.098267,330.000031 334.000000,330.000031 
	C334.000000,390.899872 334.000000,451.481262 334.000000,512.531372 
	C307.979095,513.000000 281.958221,513.000000 255.468658,513.000000 
z"/>
<path fill="#FFFFFF" opacity="1.000000" stroke="none" 
	d="
M513.000000,57.531342 
	C509.731293,49.861267 507.312744,41.240314 503.024323,33.680008 
	C492.781799,15.622816 476.560669,5.562932 456.164825,1.361421 
	C474.926788,1.000000 493.853607,1.000000 513.000000,1.000000 
	C513.000000,19.686987 513.000000,38.374836 513.000000,57.531342 
z"/>
<path fill="#FFFFFF" opacity="1.000000" stroke="none" 
	d="
M456.468658,513.000000 
	C461.716980,511.010681 467.569702,509.339661 473.124695,506.970490 
	C487.934601,500.654144 498.904572,489.992767 505.848450,475.584320 
	C508.762512,469.537720 510.179565,462.769684 512.638550,456.164795 
	C513.000000,474.926788 513.000000,493.853607 513.000000,513.000000 
	C494.313019,513.000000 475.625153,513.000000 456.468658,513.000000 
z"/>
<path fill="#FFFFFF" opacity="1.000000" stroke="none" 
	d="
M1.000003,459.468658 
	C3.004347,463.691803 4.960920,468.404724 7.021431,473.071716 
	C15.271944,491.758911 29.469746,503.768738 48.739365,509.995026 
	C51.657501,510.937927 54.690502,511.525330 57.835190,512.638550 
	C39.075195,513.000000 20.150391,513.000000 1.000000,513.000000 
	C1.000000,495.313080 1.000000,477.625183 1.000003,459.468658 
z"/>
<path fill="#FFFFFF" opacity="1.000000" stroke="none" 
	d="
M57.531342,1.000000 
	C52.439331,2.973616 46.806316,4.766443 41.332386,6.956831 
	C28.153673,12.230286 17.889915,21.123102 11.043675,33.477295 
	C7.308061,40.218292 4.768549,47.622128 1.344805,54.863518 
	C1.000000,37.071236 1.000000,19.142475 1.000000,1.000000 
	C19.687017,1.000000 38.374851,1.000000 57.531342,1.000000 
z"/>
</svg>